<svg width="375" height="52" viewBox="0 0 375 52" fill="none" xmlns="http://www.w3.org/2000/svg">
<path fill-rule="evenodd" clip-rule="evenodd" d="M-182 39.1688L-151.484 32.4156C-120.391 26 -59.3586 13.1688 2.25 6.75325C63.8586 0 124.891 0 186.5 0C248.109 0 309.141 0 370.75 6.75325C432.359 13.1688 493.391 26 524.484 32.4156L555 39.1688V52H524.484C493.391 52 432.359 52 370.75 52C309.141 52 248.109 52 186.5 52C124.891 52 63.8586 52 2.25 52C-59.3586 52 -120.391 52 -151.484 52H-182V39.1688Z" fill="#171717"/>
</svg>
