<svg width="66" height="66" viewBox="0 0 66 66" fill="none" xmlns="http://www.w3.org/2000/svg">
<path d="M32.8538 0.0710449C26.4259 0.0710449 20.1423 1.97714 14.7977 5.54828C9.45314 9.11943 5.28754 14.1952 2.82769 20.1338C0.367841 26.0724 -0.275767 32.6071 0.978253 38.9115C2.23227 45.2159 5.3276 51.0068 9.8728 55.552C14.418 60.0972 20.2089 63.1925 26.5133 64.4466C32.8177 65.7006 39.3524 65.057 45.291 62.5971C51.2296 60.1373 56.3054 55.9717 59.8765 50.6271C63.4477 45.2825 65.3538 38.9989 65.3538 32.571C65.3538 28.3031 64.5131 24.0769 62.8798 20.1338C61.2466 16.1907 58.8526 12.608 55.8347 9.59007C52.8168 6.57217 49.2341 4.17824 45.291 2.54496C41.3479 0.911682 37.1217 0.0710449 32.8538 0.0710449V0.0710449ZM37.4017 43.2765H19.2474C18.813 43.2765 18.3965 43.1039 18.0894 42.7968C17.7823 42.4897 17.6097 42.0732 17.6097 41.6388C17.6097 41.2045 17.7823 40.788 18.0894 40.4809C18.3965 40.1737 18.813 40.0012 19.2474 40.0012H37.4017C37.836 40.0012 38.2526 40.1737 38.5597 40.4809C38.8668 40.788 39.0393 41.2045 39.0393 41.6388C39.0393 42.0732 38.8668 42.4897 38.5597 42.7968C38.2526 43.1039 37.836 43.2765 37.4017 43.2765ZM46.4602 34.2087H19.2474C18.813 34.2087 18.3965 34.0361 18.0894 33.729C17.7823 33.4219 17.6097 33.0054 17.6097 32.571C17.6097 32.1367 17.7823 31.7202 18.0894 31.4131C18.3965 31.1059 18.813 30.9334 19.2474 30.9334H46.4602C46.8945 30.9334 47.311 31.1059 47.6181 31.4131C47.9252 31.7202 48.0978 32.1367 48.0978 32.571C48.0978 33.0054 47.9252 33.4219 47.6181 33.729C47.311 34.0361 46.8945 34.2087 46.4602 34.2087V34.2087ZM46.4602 25.1409H28.3058C27.8715 25.1409 27.455 24.9683 27.1478 24.6612C26.8407 24.3541 26.6682 23.9376 26.6682 23.5032C26.6682 23.0689 26.8407 22.6524 27.1478 22.3452C27.455 22.0381 27.8715 21.8656 28.3058 21.8656H46.4602C46.8945 21.8656 47.311 22.0381 47.6181 22.3452C47.9252 22.6524 48.0978 23.0689 48.0978 23.5032C48.0978 23.9376 47.9252 24.3541 47.6181 24.6612C47.311 24.9683 46.8945 25.1409 46.4602 25.1409V25.1409Z" fill="black"/>
</svg>
